<?xml version="1.0" encoding="UTF-8"?>
<svg id="Layer_1" data-name="Layer 1" xmlns="http://www.w3.org/2000/svg" xmlns:xlink="http://www.w3.org/1999/xlink" viewBox="0 0 577.88 239.49">
  <defs>
    <style>
      .cls-1 {
        fill: url(#linear-gradient);
      }

      .cls-2, .cls-3, .cls-4 {
        isolation: isolate;
      }

      .cls-5, .cls-3, .cls-4 {
        fill: #fff;
      }

      .cls-6 {
        fill: #ffcd05;
      }

      .cls-3 {
        letter-spacing: -.01em;
      }

      .cls-3, .cls-4 {
        font-family: RobotoSlab-Regular, 'Roboto Slab';
        font-size: 69.43px;
        font-variation-settings: 'wght' 400;
      }
    </style>
    <linearGradient id="linear-gradient" x1="0" y1="-700.58" x2="204.26" y2="-700.58" gradientTransform="translate(0 -598.45) scale(1 -1)" gradientUnits="userSpaceOnUse">
      <stop offset="0" stop-color="#6d98d0"/>
      <stop offset=".17" stop-color="#6892ca"/>
      <stop offset=".4" stop-color="#5c81bc"/>
      <stop offset=".66" stop-color="#4966a3"/>
      <stop offset=".93" stop-color="#2d4182"/>
      <stop offset="1" stop-color="#263779"/>
    </linearGradient>
  </defs>
  <g class="cls-2">
    <g class="cls-2">
      <g class="cls-2">
        <text class="cls-3" transform="translate(220.22 168.2) scale(1.25 1)"><tspan x="0" y="0">D</tspan></text>
      </g>
    </g>
    <g class="cls-2">
      <g class="cls-2">
        <text class="cls-4" transform="translate(279.72 168.2) scale(1.25 1)"><tspan x="0" y="0">V</tspan></text>
      </g>
    </g>
    <g class="cls-2">
      <g class="cls-2">
        <text class="cls-4" transform="translate(344.22 168.2) scale(1.25 1)"><tspan x="0" y="0">ORUF</tspan></text>
      </g>
    </g>
  </g>
  <g>
    <circle class="cls-1" cx="102.13" cy="102.13" r="102.13"/>
    <polygon class="cls-6" points="79.05 8.69 82.61 15.91 90.57 17.06 84.81 22.68 86.17 30.61 79.05 26.87 71.93 30.61 73.29 22.68 67.52 17.06 75.49 15.91 79.05 8.69"/>
    <polygon class="cls-6" points="46.63 25.91 50.19 33.12 58.15 34.28 52.39 39.89 53.75 47.82 46.63 44.08 39.5 47.82 40.86 39.89 35.1 34.28 43.06 33.12 46.63 25.91"/>
    <polygon class="cls-6" points="26.17 56.09 29.73 63.31 37.7 64.46 31.94 70.08 33.3 78.01 26.17 74.27 19.05 78.01 20.41 70.08 14.65 64.46 22.61 63.31 26.17 56.09"/>
    <polygon class="cls-6" points="19.4 92.95 22.96 100.16 30.92 101.32 25.16 106.94 26.52 114.87 19.4 111.12 12.28 114.87 13.64 106.94 7.87 101.32 15.84 100.16 19.4 92.95"/>
    <polygon class="cls-6" points="28.47 129.81 32.03 137.02 39.99 138.18 34.23 143.8 35.59 151.73 28.47 147.98 21.35 151.73 22.71 143.8 16.95 138.18 24.91 137.02 28.47 129.81"/>
    <g>
      <path class="cls-5" d="M235.84,218.51c-.65-.18-1.3-.39-1.96-.68-.24-.02-.53-.05-.86-.08-1.17-.02-2.33-.03-3.5-.03-1.97-.06-3.93-.2-5.9-.24-4.99-.1-10.1.14-15.05.84-1.01.14-2.01.18-3,.17l-.41,1.13-10.88,1.57v18.3h51.88v-18.3l-10.56-1.88.25-.78v-.02h0Z"/>
      <path class="cls-5" d="M176.54,61.85h-28.04l-43.43,118.74-9.75,1.41v16.41h46.52v-16.41l-9.47-1.69,6-18.76h47.94l18.05,58.14h32.25l-17.06-39.5-43-118.34h-.01ZM144.84,141.38l15.85-46.52,1.41-4.41h.56l1.31,4.13,15.94,46.8h-35.08,0ZM186.39,161.55l.24.75c-.09-.25-.18-.49-.27-.75h.03Z"/>
    </g>
  </g>
</svg>